<?xml version="1.0" encoding="UTF-8" standalone="no"?>
<svg
   xmlns:dc="http://purl.org/dc/elements/1.1/"
   xmlns:cc="http://creativecommons.org/ns#"
   xmlns:rdf="http://www.w3.org/1999/02/22-rdf-syntax-ns#"
   xmlns:svg="http://www.w3.org/2000/svg"
   xmlns="http://www.w3.org/2000/svg"
   xmlns:sodipodi="http://sodipodi.sourceforge.net/DTD/sodipodi-0.dtd"
   xmlns:inkscape="http://www.inkscape.org/namespaces/inkscape"
   width="144pt"
   height="117pt"
   viewBox="0 0 144 117"
   version="1.2"
   id="svg62"
   sodipodi:docname="hdf5.svg"
   inkscape:version="0.92.2 5c3e80d, 2017-08-06">
  <metadata
     id="metadata66">
    <rdf:RDF>
      <cc:Work
         rdf:about="">
        <dc:format>image/svg+xml</dc:format>
        <dc:type
           rdf:resource="http://purl.org/dc/dcmitype/StillImage" />
        <dc:title></dc:title>
      </cc:Work>
    </rdf:RDF>
  </metadata>
  <sodipodi:namedview
     pagecolor="#ffffff"
     bordercolor="#666666"
     borderopacity="1"
     objecttolerance="10"
     gridtolerance="10"
     guidetolerance="10"
     inkscape:pageopacity="0"
     inkscape:pageshadow="2"
     inkscape:window-width="1963"
     inkscape:window-height="1310"
     id="namedview64"
     showgrid="false"
     inkscape:zoom="5.0197214"
     inkscape:cx="96.041667"
     inkscape:cy="78.533855"
     inkscape:window-x="0"
     inkscape:window-y="55"
     inkscape:window-maximized="0"
     inkscape:current-layer="svg62" />
  <defs
     id="defs17">
    <clipPath
       id="clip1">
      <path
         d="M 68 77 L 92 77 L 92 109.820312 L 68 109.820312 Z M 68 77 "
         id="path2" />
    </clipPath>
    <clipPath
       id="clip2">
      <path
         d="M 52 85 L 84 85 L 84 109.820312 L 52 109.820312 Z M 52 85 "
         id="path5" />
    </clipPath>
    <clipPath
       id="clip3">
      <path
         d="M 7.199219 6.378906 L 136.800781 6.378906 L 136.800781 15 L 7.199219 15 Z M 7.199219 6.378906 "
         id="path8" />
    </clipPath>
    <clipPath
       id="clip4">
      <path
         d="M 114 6.378906 L 136.800781 6.378906 L 136.800781 37 L 114 37 Z M 114 6.378906 "
         id="path11" />
    </clipPath>
    <clipPath
       id="clip5">
      <path
         d="M 7.199219 14 L 129 14 L 129 37 L 7.199219 37 Z M 7.199219 14 "
         id="path14" />
    </clipPath>
  </defs>
  <g
     id="surface675">
    <g
       clip-path="url(#clip1)"
       id="g21"
       style="clip-rule:nonzero">
      <path
         style="fill:#006300;fill-opacity:1;fill-rule:evenodd;stroke:none"
         d="M 68.25,109.83984 83.613281,85.472656 91.59375,77.664062 77.644531,99.757812 68.25,109.83984"
         id="path19"
         inkscape:connector-curvature="0" />
    </g>
    <path
       style="fill:#00b300;fill-opacity:1;fill-rule:evenodd;stroke:none"
       d="M 83.613281,85.472656 H 52.589844 l 10.8125,-7.808594 H 91.59375"
       id="path23"
       inkscape:connector-curvature="0" />
    <g
       clip-path="url(#clip2)"
       id="g27"
       style="clip-rule:nonzero">
      <path
         style="fill:#008a00;fill-opacity:1;fill-rule:evenodd;stroke:none"
         d="M 52.589844,85.472656 H 83.613281 L 68.25,109.83984 52.589844,85.472656"
         id="path25"
         inkscape:connector-curvature="0" />
    </g>
    <path
       style="fill:#ffff00;fill-opacity:1;fill-rule:evenodd;stroke:none"
       d="M 97.027344,64.136719 H 39.351562 l 13.238282,-7.808594 h 52.417966 l -7.980466,7.808594"
       id="path29"
       inkscape:connector-curvature="0" />
    <path
       style="fill:#7a7a00;fill-opacity:1;fill-rule:evenodd;stroke:none"
       d="M 85.859375,82.152344 97.027344,64.136719 105.00781,56.328125 94.53125,72.648438 85.859375,82.152344"
       id="path31"
       inkscape:connector-curvature="0" />
    <path
       style="fill:#c76e00;fill-opacity:1;fill-rule:evenodd;stroke:none"
       d="M 99.207031,60.792969 H 37.105469 L 24.398438,41.066406 H 112.03906 L 99.207031,60.792969"
       id="path33"
       inkscape:connector-curvature="0" />
    <path
       style="fill:#ff9400;fill-opacity:1;fill-rule:evenodd;stroke:none"
       d="M 112.03906,41.066406 H 24.398438 l 16.074218,-7.808594 79.605474,-0.15625 -8.03907,7.964844"
       id="path35"
       inkscape:connector-curvature="0" />
    <path
       style="fill:#7a4a00;fill-opacity:1;fill-rule:evenodd;stroke:none"
       d="m 99.207031,60.792969 12.832029,-19.726563 8.03907,-7.964844 -11.76172,17.957032 -9.109379,9.734375"
       id="path37"
       inkscape:connector-curvature="0" />
    <g
       clip-path="url(#clip3)"
       id="g41"
       style="clip-rule:nonzero">
      <path
         style="fill:#c70000;fill-opacity:1;fill-rule:evenodd;stroke:none"
         d="M 128.88281,14.023438 H 7.261719 L 26.46875,6.140625 h 110.39062 l -7.97656,7.882813"
         id="path39"
         inkscape:connector-curvature="0" />
    </g>
    <g
       clip-path="url(#clip4)"
       id="g45"
       style="clip-rule:nonzero">
      <path
         style="fill:#630000;fill-opacity:1;fill-rule:evenodd;stroke:none"
         d="m 114.34375,36.855469 14.53906,-22.832031 7.97656,-7.882813 -13.23828,20.746094 -9.27734,9.96875"
         id="path43"
         inkscape:connector-curvature="0" />
    </g>
    <g
       clip-path="url(#clip5)"
       id="g49"
       style="clip-rule:nonzero">
      <path
         style="fill:#940000;fill-opacity:1;fill-rule:evenodd;stroke:none"
         d="M 114.34375,36.855469 H 21.917969 L 7.261719,14.023438 H 128.88281 l -14.53906,22.832031"
         id="path47"
         inkscape:connector-curvature="0" />
    </g>
    <path
       style="fill:#b3b300;fill-opacity:1;fill-rule:evenodd;stroke:none"
       d="M 97.027344,64.136719 85.859375,82.152344 H 50.402344 L 39.351562,64.136719 h 57.675782"
       id="path51"
       inkscape:connector-curvature="0" />
    <path
       style="fill:#0000ff;fill-opacity:1;fill-rule:nonzero;stroke:none"
       d="M 44.296875,28.695312 H 29.941406 l -3.46875,16.59375 H 18.792969 L 26.566406,8.152344 h 7.675782 L 31.246094,22.476562 H 45.601562 L 48.597656,8.152344 h 7.675782 l -7.769532,37.136718 h -7.675781 l 3.46875,-16.59375"
       id="path53"
       inkscape:connector-curvature="0" />
    <path
       style="fill:#0000ff;fill-opacity:1;fill-rule:nonzero;stroke:none"
       d="m 70.378906,14.371094 h 4.421875 c 2.242188,0 3.800781,0.152344 4.675781,0.457031 1.246094,0.4375 2.296876,1.3125 3.148438,2.632813 0.851562,1.316406 1.277344,3.285156 1.277344,5.90625 0,3.074218 -0.515625,5.742187 -1.542969,8.007812 -1.027344,2.269531 -2.292969,4.082031 -3.792969,5.441406 -1.042968,0.941406 -2.195312,1.585938 -3.449218,1.929688 -1.253907,0.34375 -3.28125,0.515625 -6.078126,0.515625 H 65.171875 Z M 69.34375,45.289062 c 3.296875,0 5.738281,-0.1875 7.328125,-0.558593 2.808594,-0.671875 5.097656,-1.71875 6.875,-3.140625 2.316406,-1.820313 4.238281,-4.285156 5.769531,-7.382813 1.53125,-3.097656 2.296875,-6.652343 2.296875,-10.652343 0,-1.859376 -0.195312,-3.566407 -0.585937,-5.128907 -0.386719,-1.5625 -0.941406,-2.945312 -1.660156,-4.144531 -0.71875,-1.199219 -1.574219,-2.222656 -2.5625,-3.078125 C 85.8125,10.351562 84.714844,9.691406 83.503906,9.21875 c -1.210937,-0.476562 -2.585937,-0.789062 -4.125,-0.941406 -0.777344,-0.082032 -2.5625,-0.125 -5.351562,-0.125 H 64.003906 L 56.230469,45.289062 H 69.34375"
       id="path55"
       inkscape:connector-curvature="0" />
    <path
       style="fill:#0000ff;fill-opacity:1;fill-rule:nonzero;stroke:none"
       d="M 93.472656,45.289062 101.24609,8.152344 h 25.92579 l -1.29688,6.21875 h -18.25391 l -1.85937,8.882812 h 17.84375 l -1.29297,6.21875 h -17.85156 l -3.3086,15.816406 h -7.679684"
       id="path57"
       inkscape:connector-curvature="0" />
    <path
       style="fill:#0000ff;fill-opacity:1;fill-rule:nonzero;stroke:none"
       d="M 57.167969,95.316406 64.296875,94.6875 c -0.01953,0.335938 -0.02734,0.585938 -0.02734,0.753906 0,1.714844 0.386719,3 1.160157,3.859375 0.773437,0.855469 1.78125,1.285159 3.023437,1.285159 1.734375,0 3.308594,-0.820315 4.730469,-2.46094 1.417968,-1.640625 2.128906,-3.90625 2.128906,-6.796875 0,-1.714844 -0.402344,-3.011719 -1.203125,-3.886719 -0.804687,-0.871094 -1.871094,-1.308594 -3.203125,-1.308594 -0.957031,0 -1.882812,0.21875 -2.777344,0.65625 -0.898437,0.441407 -1.765625,1.105469 -2.601562,2 L 59.5,88.332031 65.136719,69.34375 h 18.792969 l -1.359376,6.675781 H 70.097656 l -1.6875,5.6875 C 69.125,81.386719 69.839844,81.148438 70.558594,80.992188 71.273438,80.832031 71.980469,80.75 72.679688,80.75 c 2.867187,0 5.21875,0.957031 7.0625,2.863281 1.839843,1.90625 2.761718,4.464844 2.761718,7.675781 0,2.566407 -0.640625,5.09375 -1.921875,7.585938 -1.277343,2.48828 -3.054687,4.40234 -5.328125,5.73438 -2.273437,1.33593 -4.652344,2.0039 -7.148437,2.0039 -3.171875,0 -5.777344,-1.02734 -7.820313,-3.07422 -2.046875,-2.04687 -3.082031,-4.78906 -3.117187,-8.222654"
       id="path59"
       inkscape:connector-curvature="0" />
  </g>
</svg>
